<svg width="26" height="26" viewBox="0 0 26 26" fill="none" xmlns="http://www.w3.org/2000/svg">
<rect width="26" height="26" fill="#FF8980"/>
<path d="M20.3443 14.7432V20.2439H17.1552V15.1129C17.1552 13.8251 16.6962 12.9436 15.5384 12.9436C14.6568 12.9436 14.1327 13.5367 13.9012 14.1095C13.8159 14.3126 13.7955 14.6011 13.7955 14.8854V20.2439H10.6065C10.6065 20.2439 10.6512 11.5501 10.6065 10.6523H13.7955V12.0132C13.7955 12.0132 13.7793 12.0336 13.7752 12.0457H13.7955V12.0132C14.218 11.3592 14.9737 10.4289 16.6718 10.4289C18.7721 10.4289 20.3443 11.7979 20.3443 14.7473V14.7432ZM5.6543 20.2439H8.84336V10.6523H5.6543V20.2439ZM8.9368 7.39418C8.9368 8.30012 8.20148 9.03543 7.29555 9.03543C6.38961 9.03543 5.6543 8.30012 5.6543 7.39418C5.6543 6.48824 6.38961 5.75293 7.29555 5.75293C8.20148 5.75293 8.9368 6.48824 8.9368 7.39418Z" fill="white"/>
</svg>
