<svg width="26" height="26" viewBox="0 0 26 26" fill="none" xmlns="http://www.w3.org/2000/svg">
<rect width="26" height="26" fill="#FF8980"/>
<path d="M7 19C6.5875 19 6.23438 18.8531 5.94063 18.5594C5.64687 18.2656 5.5 17.9125 5.5 17.5V8.5C5.5 8.0875 5.64687 7.73438 5.94063 7.44063C6.23438 7.14687 6.5875 7 7 7H19C19.4125 7 19.7656 7.14687 20.0594 7.44063C20.3531 7.73438 20.5 8.0875 20.5 8.5V17.5C20.5 17.9125 20.3531 18.2656 20.0594 18.5594C19.7656 18.8531 19.4125 19 19 19H7ZM13 13.75L7 10V17.5H19V10L13 13.75ZM13 12.25L19 8.5H7L13 12.25ZM7 10V8.5V17.5V10Z" fill="white"/>
</svg>
