<svg width="177" height="243" viewBox="0 0 177 243" fill="none" xmlns="http://www.w3.org/2000/svg">
<g clip-path="url(#clip0_404_1350)">
<path d="M57.5711 125.95L57.571 46.4112L123.61 104.081C137.738 116.393 145.87 134.131 145.87 152.76C145.87 209.215 99.2972 255.221 41.9648 255.221C-15.3676 255.221 -61.94 209.215 -61.94 152.76L-61.94 46.3303L-93.2346 46.3303L-93.2346 152.76C-93.2346 226.224 -32.6166 286 41.8827 286C116.382 286 177 226.224 177 152.76C177 125.302 165.09 99.1402 144.227 80.9969L86.8122 30.8598L173.797 30.8598L173.797 1.90044e-05L26.2764 2.53648e-05L26.2764 126.031L57.5711 126.031L57.5711 125.95Z" fill="#F7F3F2"/>
</g>
<defs>
<clipPath id="clip0_404_1350">
<rect width="177" height="286" fill="white"/>
</clipPath>
</defs>
</svg>
