<svg width="169" height="225" viewBox="0 0 169 225" fill="none" xmlns="http://www.w3.org/2000/svg">
<g clip-path="url(#clip0_184_612)">
<path d="M53.406 156.647L53.406 86.8175L110.924 137.448C123.229 148.256 130.311 163.83 130.311 180.185C130.311 229.748 89.7482 270.139 39.8135 270.139C-10.1211 270.139 -50.6841 229.748 -50.6841 180.185L-50.6841 86.7464L-77.9407 86.7464L-77.9407 180.185C-77.9407 244.682 -25.1444 297.161 39.742 297.161C104.628 297.161 157.425 244.682 157.425 180.185C157.425 156.079 147.051 133.11 128.88 117.181L78.8741 73.1644L154.635 73.1643L154.635 46.0714L26.1495 46.0714L26.1495 156.719L53.406 156.719L53.406 156.647Z" fill="#FF8980"/>
</g>
<defs>
<clipPath id="clip0_184_612">
<rect width="387" height="169" fill="white" transform="translate(1.69163e-05 387) rotate(-90)"/>
</clipPath>
</defs>
</svg>
