<svg width="95" height="43" viewBox="0 0 95 43" fill="none" xmlns="http://www.w3.org/2000/svg">
<path d="M25.8183 23.9891H38.649L29.3461 34.4941C27.3601 36.7414 24.4986 38.035 21.4935 38.035C12.3865 38.035 4.96506 30.6266 4.96506 21.5065C4.96506 12.3865 12.3865 4.97812 21.4935 4.97812H38.6621V0H21.4935C9.64266 0 0 9.64266 0 21.4935C0 33.3443 9.64266 42.9869 21.4935 42.9869C25.9228 42.9869 30.1431 41.0924 33.0699 37.7736L41.1577 28.6405V42.4774H46.1358V19.0109H25.8052V23.9891H25.8183Z" fill="black"/>
<path d="M82.8512 0H61.7497C55.9484 0 51.2316 4.66454 51.1271 10.4397C51.0226 16.3847 56.0399 21.2452 61.9849 21.2452H72.8557C72.8557 18.5014 70.6345 16.2671 67.8776 16.2671H61.7366C58.444 16.2671 55.8047 13.4318 56.1183 10.0738C56.3927 7.14707 58.9667 4.97812 61.9065 4.97812H82.8381C86.575 4.97812 89.6193 8.02248 89.6193 11.7593H94.5975C94.5975 5.27864 89.3188 0 82.8381 0L82.8512 0Z" fill="black"/>
<path d="M83.7395 21.2452H72.8687C72.8687 23.9891 75.0899 26.2234 77.8468 26.2234H83.9878C87.2804 26.2234 89.9197 29.0587 89.6061 32.4166C89.3318 35.3434 86.7578 37.5123 83.8179 37.5123H62.8863C59.1494 37.5123 56.1051 34.468 56.1051 30.7311H51.127C51.127 37.2118 56.4056 42.4904 62.8863 42.4904H83.9878C89.7891 42.4904 94.5059 37.8259 94.6104 32.0508C94.7149 26.1058 89.6976 21.2452 83.7526 21.2452H83.7395Z" fill="black"/>
</svg>
