<svg width="189" height="43" viewBox="0 0 189 43" fill="none" xmlns="http://www.w3.org/2000/svg">
<g clip-path="url(#clip0_296_533)">
<path d="M25.8183 23.9891H38.649L29.3461 34.4941C27.3601 36.7414 24.4986 38.035 21.4935 38.035C12.3865 38.035 4.96506 30.6266 4.96506 21.5065C4.96506 12.3865 12.3865 4.97812 21.4935 4.97812H38.6621V0H21.4935C9.64266 0 0 9.64266 0 21.4935C0 33.3443 9.64266 42.9869 21.4935 42.9869C25.9228 42.9869 30.1431 41.0924 33.0699 37.7736L41.1577 28.6405V42.4774H46.1358V19.0109H25.8052V23.9891H25.8183Z" fill="black"/>
<path d="M82.8511 0H61.7496C55.9484 0 51.2316 4.66454 51.127 10.4397C51.0225 16.3847 56.0398 21.2452 61.9848 21.2452H72.8557C72.8557 18.5014 70.6345 16.2671 67.8776 16.2671H61.7366C58.444 16.2671 55.8046 13.4318 56.1182 10.0738C56.3926 7.14707 58.9666 4.97812 61.9064 4.97812H82.8381C86.5749 4.97812 89.6193 8.02248 89.6193 11.7593H94.5974C94.5974 5.27864 89.3188 0 82.8381 0L82.8511 0Z" fill="black"/>
<path d="M83.7396 21.2452H72.8687C72.8687 23.9891 75.0899 26.2234 77.8469 26.2234H83.9878C87.2805 26.2234 89.9198 29.0587 89.6062 32.4166C89.3318 35.3434 86.7578 37.5123 83.818 37.5123H62.8864C59.1495 37.5123 56.1051 34.468 56.1051 30.7311H51.127C51.127 37.2118 56.4057 42.4904 62.8864 42.4904H83.9878C89.7891 42.4904 94.5059 37.8259 94.6105 32.0508C94.715 26.1058 89.6977 21.2452 83.7527 21.2452H83.7396Z" fill="black"/>
<path d="M111.701 18.9456L115.712 8.28381H114.405L111.008 17.6782H110.956L107.52 8.28381H106.161L110.172 18.9456H111.701Z" fill="black"/>
<path d="M118.913 8.28381L114.758 18.9326H115.999L117.267 15.5615H121.957L123.212 18.9326H124.479L120.35 8.28381H118.926H118.913ZM117.672 14.464L119.593 9.39442H119.645L121.552 14.464H117.672Z" fill="black"/>
<path d="M132.567 17.8611H127.249V8.28381H126.047V18.9456H132.567V17.8611Z" fill="black"/>
<path d="M140.655 18.423C141.387 17.9787 141.961 17.3385 142.38 16.5153C142.798 15.6922 143.007 14.7253 143.007 13.6147C143.007 12.5041 142.798 11.5111 142.38 10.6879C141.961 9.86478 141.387 9.23762 140.655 8.79338C139.923 8.34914 139.087 8.12701 138.146 8.12701C137.205 8.12701 136.382 8.34914 135.651 8.79338C134.919 9.23762 134.344 9.87785 133.926 10.6879C133.508 11.5111 133.299 12.478 133.299 13.6016C133.299 14.7253 133.508 15.6791 133.926 16.5023C134.344 17.3254 134.919 17.9526 135.651 18.4099C136.382 18.8672 137.218 19.0893 138.146 19.0893C139.074 19.0893 139.923 18.8672 140.642 18.423H140.655ZM134.984 15.9143C134.684 15.261 134.54 14.4901 134.54 13.6147C134.54 12.7393 134.684 11.9553 134.984 11.302C135.285 10.6487 135.703 10.1392 136.239 9.77332C136.774 9.42054 137.414 9.23762 138.146 9.23762C138.878 9.23762 139.518 9.42054 140.067 9.77332C140.616 10.1392 141.034 10.6357 141.321 11.302C141.609 11.9553 141.765 12.7262 141.765 13.6147C141.765 14.5032 141.622 15.261 141.321 15.9143C141.034 16.5676 140.603 17.0772 140.067 17.443C139.518 17.8089 138.878 17.9918 138.146 17.9918C137.414 17.9918 136.774 17.8089 136.239 17.443C135.703 17.0772 135.285 16.5676 134.984 15.9143Z" fill="black"/>
<path d="M151.787 18.9456H153.002V14.6731C153.002 14.2941 152.898 14.0067 152.689 13.7976C152.479 13.5886 152.192 13.4841 151.813 13.4841V13.4187C152.231 13.1705 152.519 12.8438 152.715 12.4649C152.898 12.086 153.002 11.6679 153.002 11.2106C153.002 10.5834 152.871 10.0608 152.597 9.6296C152.323 9.19842 151.944 8.85871 151.46 8.63659C150.977 8.41447 150.415 8.29688 149.775 8.29688H145.372V18.9456H146.587V14.4771H151.8V18.9456H151.787ZM151.199 12.9092C150.807 13.2619 150.284 13.4449 149.644 13.4449H146.587V9.34215H149.644C150.284 9.34215 150.807 9.52507 151.199 9.87785C151.591 10.2306 151.787 10.7402 151.787 11.3935C151.787 12.0468 151.591 12.5564 151.199 12.9092Z" fill="black"/>
<path d="M164.526 19.0632C165.362 18.9717 166.094 18.6843 166.734 18.227C167.375 17.7697 167.871 17.1425 168.237 16.3586C168.603 15.5746 168.786 14.66 168.786 13.6278C168.786 12.491 168.577 11.5242 168.159 10.701C167.74 9.87785 167.166 9.25068 166.434 8.80644C165.702 8.3622 164.866 8.14008 163.925 8.14008C162.984 8.14008 162.161 8.3622 161.43 8.80644C160.698 9.25068 160.123 9.89091 159.705 10.701C159.287 11.5242 159.078 12.491 159.078 13.6147C159.078 14.6469 159.261 15.5615 159.627 16.3455C159.992 17.1294 160.489 17.7566 161.142 18.227C161.782 18.6974 162.527 18.9717 163.363 19.0763V20.1346C163.363 20.5266 163.468 20.8271 163.677 21.0231C163.886 21.2191 164.173 21.3236 164.539 21.3236H167.466V20.213H164.539V19.0632H164.526ZM163.925 18.0179C163.194 18.0179 162.553 17.835 162.018 17.4692C161.482 17.1033 161.064 16.5937 160.763 15.9274C160.463 15.261 160.319 14.4901 160.319 13.6016C160.319 12.7132 160.463 11.9292 160.763 11.2628C161.064 10.5965 161.482 10.0869 162.018 9.73412C162.553 9.36827 163.194 9.19842 163.925 9.19842C164.657 9.19842 165.297 9.38134 165.846 9.73412C166.395 10.1 166.813 10.6095 167.1 11.2628C167.388 11.9292 167.544 12.7001 167.544 13.6016C167.544 14.5032 167.401 15.261 167.1 15.9274C166.813 16.5937 166.382 17.1033 165.846 17.4692C165.31 17.835 164.657 18.0179 163.925 18.0179Z" fill="black"/>
<path d="M177.88 15.1957C177.88 16.0188 177.658 16.6852 177.2 17.1948C176.743 17.7044 176.037 17.9657 175.07 17.9657C174.104 17.9657 173.411 17.7305 172.941 17.247C172.47 16.7636 172.235 16.0711 172.235 15.1826V8.29688H170.994V15.1826C170.994 15.9796 171.151 16.6721 171.451 17.2601C171.752 17.8481 172.209 18.3054 172.81 18.619C173.411 18.9456 174.143 19.1024 175.005 19.1024C175.92 19.1024 176.691 18.9325 177.292 18.6059C177.893 18.2793 178.35 17.8089 178.651 17.2209C178.951 16.6329 179.095 15.9666 179.095 15.2088V8.29688H177.88V15.1957Z" fill="black"/>
<path d="M188.581 9.36829V8.28381H181.93V18.9456H188.581V17.8611H183.132V13.9414H188.319V12.8961H183.132V9.36829H188.581Z" fill="black"/>
<path d="M111.714 23.6624H107.363V34.3112H109.14V30.313H111.714C112.785 30.313 113.634 30.0125 114.262 29.4114C114.889 28.8104 115.202 28.0003 115.202 26.9812C115.202 25.962 114.889 25.1389 114.262 24.5509C113.634 23.9499 112.785 23.6624 111.701 23.6624H111.714ZM112.942 28.2878C112.615 28.6013 112.171 28.7581 111.609 28.7581H109.14V25.2303H111.609C112.171 25.2303 112.615 25.3871 112.942 25.7007C113.269 26.0143 113.438 26.4455 113.438 26.9942C113.438 27.543 113.269 27.9611 112.942 28.2878Z" fill="black"/>
<path d="M117.071 34.3242H123.996V32.7432H118.848V29.5682H123.669V28.0134H118.848V25.2434H123.996V23.6624H117.071V34.3242Z" fill="black"/>
<path d="M133.861 27.9219C134.083 27.5169 134.187 27.0726 134.187 26.5761C134.187 25.962 134.043 25.4394 133.769 25.0082C133.495 24.577 133.103 24.2373 132.593 24.0152C132.097 23.7931 131.509 23.6755 130.855 23.6755H126.139V34.3242H127.916V30.1039H132.423V34.3242H134.187V30.313C134.187 29.8557 134.07 29.5029 133.834 29.2677C133.599 29.0325 133.246 28.9019 132.802 28.9019V28.8496C133.299 28.6275 133.651 28.3269 133.874 27.9219H133.861ZM131.966 28.1179C131.652 28.4053 131.234 28.5491 130.712 28.5491H127.916V25.2303H130.712C131.234 25.2303 131.639 25.374 131.966 25.6615C132.28 25.9489 132.436 26.354 132.436 26.8897C132.436 27.4254 132.28 27.8174 131.966 28.1179Z" fill="black"/>
<path d="M142.994 24.3157C142.21 23.8845 141.282 23.6755 140.211 23.6755H136.696V34.3242H140.211C141.269 34.3242 142.197 34.1021 142.981 33.6709C143.764 33.2397 144.379 32.6256 144.81 31.8286C145.241 31.0316 145.463 30.0909 145.463 29.0064C145.463 27.9219 145.241 26.9681 144.81 26.1711C144.379 25.374 143.764 24.7599 142.981 24.3288L142.994 24.3157ZM143.294 30.9663C143.033 31.5281 142.641 31.9723 142.118 32.2859C141.609 32.5995 140.968 32.7694 140.224 32.7694H138.486V25.2173H140.224C141.347 25.2173 142.21 25.57 142.798 26.2625C143.399 26.955 143.686 27.8696 143.686 28.9933C143.686 29.7511 143.555 30.4044 143.281 30.9663H143.294Z" fill="black"/>
<path d="M154.087 30.2738C154.087 31.0055 153.891 31.6196 153.486 32.0899C153.081 32.5603 152.479 32.7955 151.669 32.7955C150.859 32.7955 150.258 32.5734 149.84 32.1291C149.422 31.6849 149.226 31.0577 149.226 30.2607V23.6755H147.423V30.4436C147.423 31.3191 147.593 32.0638 147.946 32.6648C148.285 33.2659 148.782 33.7232 149.409 34.0237C150.036 34.3242 150.768 34.481 151.617 34.481C152.506 34.481 153.263 34.3242 153.904 33.9976C154.544 33.684 155.027 33.2136 155.367 32.6126C155.707 32.0115 155.877 31.2929 155.877 30.4567V23.6624H154.1V30.2607L154.087 30.2738Z" fill="black"/>
<path d="M166.16 27.9219C166.382 27.5169 166.486 27.0726 166.486 26.5761C166.486 25.962 166.342 25.4394 166.068 25.0082C165.794 24.577 165.402 24.2373 164.892 24.0152C164.396 23.7931 163.808 23.6755 163.154 23.6755H158.438V34.3242H160.215V30.1039H164.722V34.3242H166.486V30.313C166.486 29.8557 166.369 29.5029 166.133 29.2677C165.898 29.0325 165.545 28.9019 165.101 28.9019V28.8496C165.598 28.6275 165.95 28.3269 166.16 27.9219ZM164.265 28.1179C163.951 28.4053 163.533 28.5491 163.011 28.5491H160.215V25.2303H163.011C163.533 25.2303 163.938 25.374 164.265 25.6615C164.579 25.9489 164.735 26.354 164.735 26.8897C164.735 27.4254 164.579 27.8174 164.265 28.1179Z" fill="black"/>
<path d="M171.856 23.6624L167.74 34.3112H169.544L170.641 31.3974H174.914L175.972 34.3112H177.827L173.764 23.6624H171.869H171.856ZM171.203 29.8426L172.797 25.5831H172.849L174.391 29.8426H171.203Z" fill="black"/>
</g>
<defs>
<clipPath id="clip0_296_533">
<rect width="188.581" height="43" fill="white"/>
</clipPath>
</defs>
</svg>
